<?xml version="1.0" encoding="UTF-8" standalone="no"?>
<!-- Created with Inkscape (http://www.inkscape.org/) -->

<svg
   xmlns:dc="http://purl.org/dc/elements/1.1/"
   xmlns:cc="http://creativecommons.org/ns#"
   xmlns:rdf="http://www.w3.org/1999/02/22-rdf-syntax-ns#"
   xmlns:svg="http://www.w3.org/2000/svg"
   xmlns="http://www.w3.org/2000/svg"
   xmlns:sodipodi="http://sodipodi.sourceforge.net/DTD/sodipodi-0.dtd"
   xmlns:inkscape="http://www.inkscape.org/namespaces/inkscape"
   width="500"
   height="500"
   viewBox="0 0 132.29167 132.29167"
   version="1.1"
   id="svg8"
   inkscape:version="0.92.2 (5c3e80d, 2017-08-06)"
   sodipodi:docname="pokerchip.svg">
  <defs
     id="defs2" />
  <sodipodi:namedview
     id="base"
     pagecolor="#ffffff"
     bordercolor="#666666"
     borderopacity="1.0"
     inkscape:pageopacity="0.0"
     inkscape:pageshadow="2"
     inkscape:zoom="1.7768421"
     inkscape:cx="276.52659"
     inkscape:cy="336.70059"
     inkscape:document-units="mm"
     inkscape:current-layer="layer1"
     showgrid="true"
     units="px"
     inkscape:snap-intersection-paths="true"
     inkscape:lockguides="true"
     inkscape:snap-grids="false"
     inkscape:window-width="1521"
     inkscape:window-height="1520"
     inkscape:window-x="1040"
     inkscape:window-y="35"
     inkscape:window-maximized="0">
    <inkscape:grid
       type="xygrid"
       id="grid3701" />
    <sodipodi:guide
       position="0,0"
       orientation="0,500"
       id="guide4551"
       inkscape:locked="true" />
    <sodipodi:guide
       position="132.29167,0"
       orientation="-500,0"
       id="guide4553"
       inkscape:locked="true" />
    <sodipodi:guide
       position="132.29167,132.29167"
       orientation="0,-500"
       id="guide4555"
       inkscape:locked="true" />
    <sodipodi:guide
       position="0,132.29167"
       orientation="500,0"
       id="guide4557"
       inkscape:locked="true" />
    <sodipodi:guide
       position="132.29166,132.29167"
       orientation="499.99997,-499.99997"
       id="guide4563"
       inkscape:locked="true" />
    <sodipodi:guide
       position="0,132.29167"
       orientation="499.99997,499.99997"
       id="guide4565"
       inkscape:locked="true" />
    <sodipodi:guide
       position="7.9375001,124.35417"
       orientation="440.00001,0"
       id="guide4577"
       inkscape:locked="true" />
    <sodipodi:guide
       position="7.9375001,7.9374969"
       orientation="0,440.00001"
       id="guide4579"
       inkscape:locked="true" />
    <sodipodi:guide
       position="124.35417,7.9374969"
       orientation="-440.00001,0"
       id="guide4581"
       inkscape:locked="true" />
    <sodipodi:guide
       position="124.35417,124.35417"
       orientation="0,-440.00001"
       id="guide4583"
       inkscape:locked="true" />
    <sodipodi:guide
       position="21.166667,111.125"
       orientation="339.99999,0"
       id="guide4587"
       inkscape:locked="true" />
    <sodipodi:guide
       position="21.166667,21.166667"
       orientation="0,340"
       id="guide4589"
       inkscape:locked="true" />
    <sodipodi:guide
       position="111.125,21.166667"
       orientation="-339.99999,0"
       id="guide4591"
       inkscape:locked="true" />
    <sodipodi:guide
       position="111.125,111.125"
       orientation="0,-340"
       id="guide4593"
       inkscape:locked="true" />
    <sodipodi:guide
       position="66.145834,6.6666668e-006"
       orientation="-249.99999,249.99998"
       id="guide4603"
       inkscape:locked="true" />
    <sodipodi:guide
       position="132.29166,66.145838"
       orientation="-249.99999,-249.99998"
       id="guide4605"
       inkscape:locked="true" />
    <sodipodi:guide
       position="66.145834,132.29167"
       orientation="249.99999,-249.99999"
       id="guide4607"
       inkscape:locked="true" />
    <sodipodi:guide
       position="0,66.145838"
       orientation="249.99999,249.99999"
       id="guide4609"
       inkscape:locked="true" />
  </sodipodi:namedview>
  <metadata
     id="metadata5">
    <rdf:RDF>
      <cc:Work
         rdf:about="">
        <dc:format>image/svg+xml</dc:format>
        <dc:type
           rdf:resource="http://purl.org/dc/dcmitype/StillImage" />
        <dc:title></dc:title>
      </cc:Work>
    </rdf:RDF>
  </metadata>
  <g
     inkscape:label="Layer 1"
     inkscape:groupmode="layer"
     id="layer1"
     transform="translate(0,-164.70834)">
    <path
       style="color:#000000;font-style:normal;font-variant:normal;font-weight:normal;font-stretch:normal;font-size:medium;line-height:normal;font-family:sans-serif;font-variant-ligatures:normal;font-variant-position:normal;font-variant-caps:normal;font-variant-numeric:normal;font-variant-alternates:normal;font-feature-settings:normal;text-indent:0;text-align:start;text-decoration:none;text-decoration-line:none;text-decoration-style:solid;text-decoration-color:#000000;letter-spacing:normal;word-spacing:normal;text-transform:none;writing-mode:lr-tb;direction:ltr;text-orientation:mixed;dominant-baseline:auto;baseline-shift:baseline;text-anchor:start;white-space:normal;shape-padding:0;clip-rule:nonzero;display:inline;overflow:visible;visibility:visible;opacity:1;isolation:auto;mix-blend-mode:normal;color-interpolation:sRGB;color-interpolation-filters:linearRGB;solid-color:#000000;solid-opacity:1;vector-effect:none;fill-opacity:1;fill-rule:nonzero;stroke:none;stroke-width:15.65858269;stroke-linecap:butt;stroke-linejoin:miter;stroke-miterlimit:4;stroke-dasharray:none;stroke-dashoffset:0;stroke-opacity:1;color-rendering:auto;image-rendering:auto;shape-rendering:auto;text-rendering:auto;enable-background:accumulate"
       d="M 250.00195 12.5 C 118.92727 12.5 12.498047 118.92335 12.498047 249.99805 C 12.498047 381.07271 118.92727 487.50195 250.00195 487.50195 C 381.07663 487.50195 487.5 381.07271 487.5 249.99805 C 487.49996 118.92335 381.07663 12.500038 250.00195 12.5 z M 287.22852 31.277344 C 320.77049 36.934213 351.74754 50.089528 378.36328 68.988281 L 329.93164 117.41992 A 155 155 0 0 0 287.22852 99.732422 L 287.22852 31.277344 z M 212.76758 31.279297 L 212.76758 99.699219 A 155 155 0 0 0 170.04492 117.39844 L 121.63867 68.992188 C 148.25251 50.09409 179.22806 36.937301 212.76758 31.279297 z M 431.01172 121.63672 C 449.91047 148.25246 463.06579 179.2295 468.72266 212.77148 L 400.30273 212.77148 A 155 155 0 0 0 382.60352 170.04492 L 431.01172 121.63672 z M 68.992188 121.64258 L 117.41992 170.07031 A 155 155 0 0 0 99.732422 212.77148 L 31.28125 212.77148 C 36.937778 179.23153 50.095264 148.25724 68.992188 121.64258 z M 250.00195 123.11719 C 320.62142 123.11719 377.94531 179.94129 377.94531 249.99805 C 377.94531 320.05476 320.62142 376.88477 250.00195 376.88477 C 179.38249 376.88477 122.05859 320.05476 122.05859 249.99805 C 122.05859 179.94129 179.38249 123.11719 250.00195 123.11719 z M 250.00195 128.11523 C 182.06185 128.11523 127.05664 182.66652 127.05664 249.99805 C 127.05664 317.32954 182.06185 371.88086 250.00195 371.88086 C 317.94206 371.88086 372.94141 317.32954 372.94141 249.99805 C 372.94141 182.66652 317.94206 128.11523 250.00195 128.11523 z M 31.283203 287.23242 L 99.699219 287.23242 A 155 155 0 0 0 117.39648 329.95508 L 68.994141 378.35742 C 50.097721 351.74457 36.940895 320.77008 31.283203 287.23242 z M 400.26562 287.23242 L 468.7207 287.23242 C 463.0627 320.77193 449.90591 351.74749 431.00781 378.36133 L 382.57812 329.93164 A 155 155 0 0 0 400.26562 287.23242 z M 170.06836 382.58008 A 155 155 0 0 0 212.76758 400.26562 L 212.76758 468.7168 C 179.22992 463.05911 148.25543 449.90228 121.64258 431.00586 L 170.06836 382.58008 z M 329.95312 382.60352 L 378.35742 431.00781 C 351.74276 449.90474 320.76847 463.06222 287.22852 468.71875 L 287.22852 400.30273 A 155 155 0 0 0 329.95312 382.60352 z "
       transform="matrix(0.26458333,0,0,0.26458333,0,164.70834)"
       id="path4676" />
    <g
       style="stroke:#4a55dc;stroke-width:19.70000076;stroke-linecap:butt;stroke-linejoin:bevel;stroke-miterlimit:4;stroke-dasharray:none;stroke-dashoffset:0;stroke-opacity:1"
       id="g4701" />
  </g>
</svg>
